<svg width="30" height="30" viewBox="0 0 30 30" fill="none" xmlns="http://www.w3.org/2000/svg">
<path fill-rule="evenodd" clip-rule="evenodd" d="M17.6088 0.144131L17.4334 0.295043V1.49365V2.69225L17.6088 2.84316C17.8239 3.02821 18.0211 3.03484 18.2377 2.86442L18.4024 2.73489V1.49365V0.252407L18.2377 0.122876C18.0211 -0.047541 17.8239 -0.0409144 17.6088 0.144131ZM8.64458 2.57404C8.48623 2.69563 8.39389 2.91675 8.43428 3.0776C8.45478 3.15937 8.98466 3.7367 9.61175 4.36047C10.837 5.57921 10.9079 5.62309 11.236 5.36503C11.3611 5.26663 11.4007 5.17967 11.4007 5.00338C11.4007 4.78545 11.3306 4.70156 10.256 3.63261C9.2858 2.66756 9.08318 2.4942 8.92752 2.49589C8.82643 2.49696 8.69915 2.53215 8.64458 2.57404ZM25.6157 3.62804C24.9886 4.25182 24.4587 4.82915 24.4382 4.91092C24.3674 5.19286 24.6187 5.48925 24.9314 5.49262C25.0871 5.49431 25.2897 5.32096 26.2599 4.35591C27.3345 3.28696 27.4046 3.20307 27.4046 2.98514C27.4046 2.80884 27.365 2.72189 27.2399 2.62349C26.9118 2.36542 26.8409 2.40931 25.6157 3.62804ZM17.0896 4.03339C16.6102 4.0941 15.8511 4.26608 15.4042 4.41524C12.6636 5.33002 10.55 7.77656 10.0817 10.5759C10.014 10.9806 9.97878 11.067 9.87219 11.0897C8.345 11.4153 7.33795 11.9352 6.36258 12.9017C5.4016 13.8539 4.79464 14.9916 4.54939 16.3003C4.43111 16.9318 4.42011 17.9806 4.52563 18.5794C4.56683 18.8133 4.58809 19.0172 4.57283 19.0324C4.55758 19.0477 4.33377 19.1142 4.07552 19.1803C2.21788 19.6553 0.748087 21.0809 0.170633 22.9676C0.0138451 23.48 -0.00140867 23.617 9.16924e-05 24.4993C0.00152954 25.3686 0.0189088 25.5248 0.169008 26.0176C0.78197 28.0305 2.33466 29.4633 4.35459 29.8801C4.90579 29.9939 5.34546 29.999 14.6589 29.9998C25.2114 30.0007 24.8664 30.0111 25.8982 29.6593C27.7042 29.0433 29.1083 27.5592 29.6985 25.6422C29.8549 25.1344 29.8676 25.0111 29.8676 23.9991C29.8676 22.9872 29.8549 22.8639 29.6985 22.3561C29.0899 20.3794 27.6403 18.8886 25.7464 18.2917C25.0768 18.0807 24.317 17.9758 23.7121 18.0108C23.4393 18.0266 23.2163 18.0231 23.2165 18.003C23.2167 17.9829 23.3881 17.7992 23.5973 17.5948C24.5924 16.6226 25.3264 15.3134 25.6906 13.8609C25.9107 12.9834 25.9662 11.6006 25.8168 10.7237C25.2528 7.41522 22.8887 4.92836 19.5902 4.1738C19.0693 4.05465 17.5814 3.97107 17.0896 4.03339ZM18.9999 5.08684C21.7644 5.53526 23.9684 7.52193 24.6997 10.2247C24.8518 10.7866 24.8662 10.9395 24.8662 11.9962C24.8662 13.0565 24.8521 13.2046 24.6975 13.7765C24.4994 14.5093 24.0359 15.4915 23.6244 16.0503C23.3059 16.4829 22.8494 16.9974 22.784 16.9974C22.7614 16.9974 22.6921 16.9115 22.6301 16.8064C22.1151 15.9346 21.022 15.0935 19.9653 14.7558C18.9481 14.4308 18.207 14.4236 16.9315 14.7261C16.8327 14.7495 16.7794 14.7032 16.6912 14.5171C16.6288 14.3856 16.4634 14.1092 16.3236 13.9029C15.2428 12.3077 13.5733 11.2855 11.6644 11.0501L11.0217 10.9708L11.0632 10.6865C11.0859 10.53 11.1854 10.1528 11.2843 9.84825C12.3406 6.59246 15.6586 4.54489 18.9999 5.08684ZM27.1317 11.6257C26.899 11.8087 26.899 12.1838 27.1317 12.3667C27.2847 12.4871 27.3778 12.4963 28.4361 12.4963C29.4944 12.4963 29.5875 12.4871 29.7405 12.3667C29.8676 12.2668 29.9052 12.1821 29.9052 11.9962C29.9052 11.8104 29.8676 11.7256 29.7405 11.6257C29.5875 11.5053 29.4944 11.4961 28.4361 11.4961C27.3778 11.4961 27.2847 11.5053 27.1317 11.6257ZM12.1821 12.1506C13.8325 12.5847 15.1067 13.6107 15.8479 15.1022C16.0234 15.4554 16.2039 15.775 16.2489 15.8124C16.3847 15.9251 16.6572 15.8954 17.1833 15.7106C17.619 15.5575 17.7762 15.5348 18.4024 15.5339C19.2256 15.5328 19.6194 15.6263 20.3072 15.9864C21.1904 16.449 21.8852 17.2881 22.2384 18.3191C22.5018 19.0878 22.5894 19.1536 23.2188 19.0552C25.4079 18.7132 27.6362 19.971 28.5197 22.0474C29.5713 24.5183 28.4583 27.4023 26.0193 28.5272C24.9868 29.0034 25.9582 28.9634 14.9328 28.9849C4.06477 29.0061 4.57727 29.0223 3.63517 28.6275C0.680508 27.3894 -0.0173501 23.406 2.33835 21.225C3.06747 20.55 3.86572 20.1845 4.9338 20.0367C5.25537 19.9922 5.56014 19.9211 5.61109 19.8789C5.77581 19.7422 5.78857 19.4657 5.65147 19.0053C5.39397 18.1406 5.38441 16.9167 5.6284 16.0356C6.18704 14.0178 7.86558 12.4862 9.95246 12.0899C10.537 11.9788 11.6436 12.009 12.1821 12.1506Z" fill="#1B6AA5"/>
</svg>
